<svg xmlns="http://www.w3.org/2000/svg" clip-rule="evenodd" fill-rule="evenodd" image-rendering="optimizeQuality" shape-rendering="geometricPrecision" text-rendering="geometricPrecision" viewBox="0 0 273.38 240.52" style="fill: rgb(0, 0, 0);" role="img"><g><path d="M133.12 49.45l-6.09 3.51 0 -5.62 6.09 -3.51 0 5.62zm-7.71 4.45l-6.08 3.51 0 -5.63 6.08 -3.51 0 5.63zm7.71 10.13l-6.09 3.51 0 -5.63 6.09 -3.51 0 5.62zm-7.71 4.45l-6.08 3.51 0 -5.62 6.08 -3.51 0 5.63zm-21.71 23.5l0 3.52 -4.24 -1.63 0 -3.51 4.24 1.63 0 0zm5.86 2.25l0 3.52 -4.24 -1.63 0 -3.52 4.24 1.63 0 0zm23.56 -18.08l-6.09 3.51 0 -5.63 6.09 -3.51 0 5.63zm-7.71 4.45l-6.08 3.51 0 -5.63 6.08 -3.51 0 5.62zm-21.71 18.67l0 3.52 -4.24 -1.63 0 -3.52 4.24 1.63 0 0zm5.86 2.25l0 3.52 -4.24 -1.63 0 -3.52 4.24 1.63 0 0zm23.56 -12.43l-6.09 3.51 0 -5.63 6.09 -3.51 0 5.63zm-7.71 4.45l-6.08 3.51 0 -5.63 6.08 -3.51 0 5.62zm-21.71 13.03l0 3.51 -4.24 -1.63 0 -3.52 4.24 1.63 0 0zm5.86 2.25l0 3.51 -4.24 -1.63 0 -3.51 4.24 1.63 0 0zm23.56 -7.87l-6.09 3.51 0 -5.63 6.09 -3.51 0 5.63zm-7.71 -1.17l0 5.62 -6.08 3.51 0 -5.63 6.08 -3.51 0 0zm53.58 0.17l-12.27 4.92 0 -3.57 12.27 -4.92 0 3.57zm-27.13 -33.52l0 -6.11 6.92 4 0 6.11 -6.92 -4 0 0zm0 14.39l0 -6.11 6.92 4 0 6.11 -6.92 -4 0 0zm0 14.39l0 -6.11 6.92 4 0 6.11 -6.92 -4 0 0zm-52.4 17.04l4.24 1.63 0 3.52 -4.24 -1.63 0 -3.51zm10.1 3.88l0 3.52 -4.24 -1.63 0 -3.52 4.24 1.63 0 0zm23.56 -2.08l-6.09 3.51 0 -5.63 6.09 -3.51 0 5.62zm18.74 -4.44l0 -6.11 6.92 4 0 6.11 -6.92 -4 0 0zm46.3 -0.49l-12.61 -7.28 0 -4.13 12.61 7.28 0 4.13zm-31.44 3.16l0 -3.57 12.27 -4.92 0 3.57 -12.27 4.92 0 0zm-16.73 -61.3l-6.93 -4 0 -6.11 6.93 4 0 6.11zm1.87 1.08l0 -6.11 6.92 4 0 6.11 -6.92 -4 0 0zm-1.87 13.31l-6.93 -4 0 -6.11 6.93 4 0 6.11zm0 14.39l-6.93 -4 0 -6.11 6.93 4 0 6.11zm0 14.39l-6.93 -4 0 -6.11 6.93 4 0 6.11zm-6.93 10.39l0 -6.11 6.93 4 0 6.11 -6.93 -4 0 0zm42.48 6.47l0 -4.13 12.61 7.28 0 4.13 -12.61 -7.28 0 0zm-18.82 5.1l12.27 -4.92 0 3.57 -12.27 4.92 0 -3.57zm31.44 11.35l-12.61 -7.28 0 -4.13 12.61 7.28 0 4.13zm-12.61 1.88l0 -4.13 12.61 7.28 0 4.13 -12.61 -7.28 0 0zm-18.82 -2.27l0 -3.57 12.27 -4.92 0 3.57 -12.27 4.92 0 0zm-67.26 -7.51l4.24 1.63 0 3.52 -4.24 -1.63 0 -3.51zm25.95 -1.04l-6.08 3.51 0 -5.62 6.08 -3.51 0 5.63zm-25.95 8.34l4.24 1.63 0 3.52 -4.24 -1.63 0 -3.52zm10.1 -3.42l0 3.52 -4.24 -1.63 0 -3.52 4.24 1.63 0 0zm-4.24 5.67l4.24 1.63 0 3.51 -4.24 -1.62 0 -3.52zm27.8 -7.85l0 5.63 -6.09 3.51 0 -5.62 6.09 -3.51 0 0zm18.74 2.76l0 -6.11 6.92 4 0 6.11 -6.92 -4 0 0zm-1.87 -1.08l-6.93 -4 0 -6.11 6.93 4 0 6.11zm17.34 11.29l-0.61 0.25 0 -3.57 12.27 -4.92 0 3.57 -11.66 4.67 0 0zm-87.82 8.64c-11.34,3.93 -22.39,8.97 -32.99,15.13 61.28,-22.41 128.52,-22.41 189.81,0 -8.35,-4.85 -16.99,-9.01 -25.83,-12.48l0 -17.11 -7.97 -4.6 0 -23.43 -20.01 -11.55 -18.19 7.29 0 -53.12 -27.31 -15.77 -22.7 13.1 0 49.08 -19.51 -7.49 -15.29 11.43 0 49.52zm42.2 -9.39l-2.38 1.38 0 -5.63 6.08 -3.51 0 5.63 -3.7 2.13 0 0z" style="fill: rgb(0, 0, 0);"></path><path d="M33.12 33.7c0.01,-0.22 0.03,-0.44 0.06,-0.66l-0.06 0.66zm21.72 -1.57c-0.02,-0.1 -0.04,-0.2 -0.06,-0.29 0.02,0.1 0.04,0.19 0.06,0.29l0 0zm0.06 0.36c-0.02,-0.11 -0.04,-0.22 -0.06,-0.33 0.02,0.11 0.04,0.22 0.06,0.33l0 0zm0.05 0.35c-0.01,-0.1 -0.03,-0.21 -0.05,-0.31 0.02,0.11 0.03,0.21 0.05,0.31l0 0zm0.04 0.35l-0.04 -0.33c0.02,0.11 0.03,0.22 0.04,0.33l0 0zm-21.87 0.53c-0.01,0.11 -0.01,0.22 -0.01,0.33 0,-0.11 0,-0.22 0.01,-0.33l0 0zm0.1 -1c-0.01,0.1 -0.03,0.19 -0.04,0.29 0.01,-0.1 0.02,-0.2 0.04,-0.29l0 0zm17.29 -12.99c13.07,-0.44 24.41,1.75 17.88,7.42 1.85,-0.6 3.83,-1.37 5.41,-2.36 0.55,-0.35 1.89,-1.28 1.84,-2.07 -0.05,-0.77 -1.47,-1.51 -2.06,-1.77 -1.99,-0.91 -4.52,-1.41 -6.67,-1.75 -3.3,-0.52 -6.71,-0.74 -10.05,-0.83 -2.12,-0.06 -4.24,-0.05 -6.35,0.01l0 1.36zm-26.94 10.97c-9.06,-4.21 4.53,-8.88 19.59,-10.46l0 -1.47c-3.61,0.29 -7.23,0.72 -10.8,1.33 -3.31,0.56 -6.65,1.27 -9.86,2.24 -2.1,0.64 -4.54,1.5 -6.4,2.68 -0.56,0.35 -1.89,1.28 -1.84,2.07 0.05,0.77 1.47,1.51 2.06,1.77 1.99,0.91 4.52,1.41 6.67,1.75 0.19,0.03 0.39,0.06 0.58,0.09l0 0zm30.02 10.14c-0.04,0.1 -0.09,0.2 -0.13,0.3 0.04,-0.1 0.09,-0.2 0.13,-0.3l0 0zm0.13 -0.31c-0.04,0.1 -0.08,0.2 -0.12,0.3 0.04,-0.1 0.08,-0.2 0.12,-0.3l0 0zm0.13 -0.32c-0.04,0.1 -0.08,0.2 -0.12,0.3 0.04,-0.1 0.08,-0.2 0.12,-0.3l0 0zm0.44 -1.24c-0.13,0.41 -0.27,0.82 -0.43,1.23 0.16,-0.41 0.31,-0.82 0.43,-1.23l0 0zm0.1 -0.31c-0.03,0.1 -0.06,0.2 -0.09,0.3 0.03,-0.1 0.06,-0.2 0.09,-0.3l0 0zm0.08 -0.29c-0.03,0.09 -0.05,0.19 -0.08,0.29 0.03,-0.1 0.05,-0.19 0.08,-0.29l0 0zm0.09 -0.32c-0.02,0.1 -0.05,0.19 -0.08,0.29l0.08 -0.29 0 0zm0.07 -0.29c-0.02,0.09 -0.05,0.19 -0.07,0.29 0.03,-0.1 0.05,-0.19 0.07,-0.29l0 0zm0.07 -0.29c-0.02,0.09 -0.04,0.18 -0.06,0.27 0.02,-0.09 0.04,-0.18 0.06,-0.27l0 0zm0.29 -1.76c-0.06,0.56 -0.15,1.14 -0.28,1.72 0.13,-0.58 0.23,-1.16 0.28,-1.72l0 0zm0.03 -0.29c-0.01,0.09 -0.02,0.19 -0.03,0.28l0.03 -0.28 0 0zm0 -2.03c0.05,0.66 0.05,1.33 -0,2.02 0.06,-0.75 0.06,-1.48 -0.01,-2.19l0.01 0.17 0 0zm21.61 44.1c-0.03,0.17 -0.04,0.34 -0.05,0.52 0.01,-0.18 0.03,-0.35 0.05,-0.52l0 0zm0.1 -0.49c-0.04,0.16 -0.08,0.32 -0.1,0.49 0.03,-0.17 0.06,-0.33 0.1,-0.49l0 0zm26.87 -6.02c0.02,-0.03 0.03,-0.06 0.04,-0.09 -0.01,0.03 -0.03,0.06 -0.04,0.09l0 0zm-14.38 6.13c-1.27,-5.18 -11.1,-5.22 -12.49,-0.11l0.03 -0.12c-5.11,-0.13 -8.7,-0.95 -8.8,-2.21 -0.13,-1.74 6.45,-3.64 14.7,-4.25 8.24,-0.61 15.03,0.3 15.16,2.04 0.1,1.31 -3.63,2.72 -9.01,3.59 0.15,0.28 0.28,0.58 0.37,0.91 0.01,0.05 0.03,0.1 0.04,0.15l0 0zm0.08 0.37c-0.02,-0.12 -0.05,-0.24 -0.07,-0.36 0.03,0.12 0.05,0.24 0.07,0.36l0 0zm0.05 0.39c-0.01,-0.13 -0.03,-0.25 -0.05,-0.38 0.02,0.12 0.04,0.25 0.05,0.38l0 0zm0.01 0.41c0,-0.13 -0,-0.27 -0.01,-0.4 0.01,0.13 0.01,0.26 0.01,0.4l0 0zm-0.02 0.41c0.01,-0.14 0.01,-0.28 0.02,-0.41 -0,0.14 -0.01,0.27 -0.02,0.41l0 0zm-0.05 0.44c0.02,-0.14 0.04,-0.28 0.05,-0.42 -0.01,0.14 -0.03,0.28 -0.05,0.42l0 0zm-0.09 0.45c0.03,-0.15 0.06,-0.3 0.08,-0.44 -0.02,0.15 -0.05,0.29 -0.08,0.44l0 0zm-0.12 0.47c0.04,-0.16 0.08,-0.31 0.11,-0.46 -0.03,0.15 -0.07,0.3 -0.11,0.46l0 0zm-0.16 0.49c0.06,-0.16 0.11,-0.32 0.15,-0.48 -0.05,0.16 -0.1,0.32 -0.15,0.48l0 0zm-0.19 0.5c0.07,-0.17 0.13,-0.34 0.19,-0.5 -0.06,0.16 -0.12,0.33 -0.19,0.5l0 0zm-0.24 0.52c0.08,-0.18 0.16,-0.35 0.23,-0.52 -0.07,0.17 -0.15,0.34 -0.23,0.52l0 0zm-0.27 0.53c0.1,-0.18 0.19,-0.36 0.27,-0.53 -0.08,0.17 -0.17,0.35 -0.27,0.53l0 0zm15.57 -11.74c-0.01,0.06 -0.02,0.13 -0.04,0.2l-0.01 0.04c0.02,-0.08 0.04,-0.16 0.05,-0.24l0 0zm-0 -0.47c0.01,0.05 0.01,0.1 0.02,0.15l-0.02 -0.15 0 0zm-0.03 -0.14c0.01,0.05 0.02,0.09 0.03,0.14 -0.01,-0.05 -0.02,-0.1 -0.03,-0.14l0 0zm-0.1 -0.29c0.04,0.09 0.07,0.18 0.1,0.28 -0.02,-0.1 -0.05,-0.19 -0.1,-0.28l0 0zm-0.07 -0.14c0.03,0.04 0.05,0.09 0.07,0.13 -0.02,-0.04 -0.04,-0.09 -0.07,-0.13l0 0zm-0.08 -0.14c0.03,0.04 0.05,0.09 0.08,0.13 -0.02,-0.04 -0.05,-0.09 -0.08,-0.13l0 0zm-0.1 -0.14c0.03,0.04 0.06,0.09 0.09,0.13 -0.03,-0.04 -0.06,-0.08 -0.09,-0.13l0 0zm-0.11 -0.13c0.04,0.04 0.07,0.08 0.1,0.13 -0.03,-0.04 -0.07,-0.09 -0.1,-0.13l0 0zm-0.12 -0.13c0.04,0.04 0.08,0.08 0.12,0.12 -0.04,-0.04 -0.07,-0.08 -0.12,-0.12l0 0zm-0.29 -0.26c0.1,0.08 0.19,0.16 0.28,0.25 -0.09,-0.08 -0.18,-0.17 -0.28,-0.25l0 0zm6.86 -5.45l0 2.78 -7.19 2.42c0.12,0.08 0.23,0.16 0.33,0.24 -2.74,-2.19 -11.24,-3.18 -21.2,-2.24 -12.03,1.13 -21.63,4.65 -21.44,7.85 0.16,2.67 7.06,4.28 16.31,4.09 0,-0.07 0,-0.14 0,-0.21 -0.12,2.49 1.54,5.96 6.39,10.39 2.59,-2.37 4.28,-4.47 5.26,-6.29 -0.08,0.15 -0.17,0.3 -0.26,0.46l26.36 -8.9 0 -18.18 -59.31 -22.11c20.23,-2.65 35.19,-8.33 34.89,-13.71 -0.35,-6.2 -20.75,-9.67 -45.58,-7.75 -24.83,1.92 -44.67,8.49 -44.32,14.69 0.29,5.12 14.26,8.38 33.11,8.27l-0 -0.12c0.18,5.41 3.83,11.92 10.97,19.32 4.52,-4.69 7.64,-9.02 9.37,-12.95 -0.05,0.12 -0.11,0.24 -0.16,0.36l60.33 23.03 -3.87 -1.48 0 0zm-75.23 -34.17c-0.67,1.18 -1.1,2.44 -1.29,3.78l0.03 -0.18c-12.99,-0.19 -22.34,-2.24 -22.54,-5.35 -0.26,-4.02 14.85,-8.28 33.76,-9.52 18.91,-1.24 34.46,1.01 34.72,5.02 0.22,3.34 -10.18,6.85 -24.56,8.65l0.04 0.16c-0.29,-1.1 -0.75,-2.14 -1.39,-3.12 -5.3,-8.2 -14.02,-7.82 -18.77,0.57l0 0z" style="fill: #1677ff;"></path><path d="M241.59 20.35l-0.15 -0.64c0.05,0.21 0.1,0.43 0.15,0.64zm-21.72 1.54c0,-0.1 0.01,-0.2 0.02,-0.3 -0.01,0.1 -0.01,0.2 -0.02,0.3l0 0zm-0.01 0.36c0,-0.11 0,-0.22 0.01,-0.33 -0,0.11 -0.01,0.22 -0.01,0.33l0 0zm-0 0.35c0,-0.11 0,-0.21 0,-0.32 0,0.11 0,0.21 0,0.32l0 0zm0.01 0.35l-0.01 -0.33c0,0.11 0,0.22 0.01,0.33l0 0zm21.72 -2.6c0.02,0.11 0.04,0.21 0.06,0.32 -0.02,-0.11 -0.04,-0.22 -0.06,-0.32l0 0zm-0.24 -0.97c0.03,0.09 0.05,0.19 0.08,0.28 -0.02,-0.09 -0.05,-0.19 -0.08,-0.28l0 0zm-18.97 -10.4c-13,1.43 -23.92,5.21 -16.64,9.89 -1.91,-0.33 -3.99,-0.81 -5.69,-1.57 -0.6,-0.27 -2.05,-1 -2.12,-1.79 -0.06,-0.77 1.24,-1.7 1.79,-2.05 1.84,-1.18 4.27,-2.04 6.35,-2.68 3.2,-0.98 6.53,-1.69 9.82,-2.25 2.09,-0.36 4.19,-0.65 6.29,-0.9l0.19 1.35 0 0zm28.23 7.02c8.36,-5.45 -5.75,-8.14 -20.88,-7.56l-0.21 -1.46c3.62,-0.23 7.25,-0.31 10.88,-0.22 3.35,0.08 6.76,0.31 10.08,0.82 2.17,0.33 4.71,0.84 6.72,1.74 0.6,0.27 2.05,1 2.12,1.78 0.06,0.77 -1.24,1.7 -1.79,2.05 -1.84,1.18 -4.27,2.04 -6.35,2.68 -0.19,0.06 -0.37,0.11 -0.56,0.17l0 0zm-28.27 14.31c0.06,0.09 0.11,0.18 0.17,0.28 -0.06,-0.09 -0.12,-0.18 -0.17,-0.28l0 0zm-0.17 -0.29c0.05,0.09 0.11,0.18 0.16,0.27 -0.06,-0.09 -0.11,-0.18 -0.16,-0.27l0 0zm-0.17 -0.3c0.05,0.09 0.1,0.18 0.16,0.27 -0.05,-0.09 -0.11,-0.18 -0.16,-0.27l0 0zm-0.61 -1.17c0.18,0.38 0.39,0.77 0.61,1.16 -0.22,-0.39 -0.42,-0.77 -0.61,-1.16l0 0zm-0.13 -0.29c0.04,0.1 0.09,0.19 0.13,0.29 -0.04,-0.1 -0.09,-0.19 -0.13,-0.29l0 0zm-0.13 -0.27c0.04,0.09 0.08,0.18 0.13,0.27 -0.04,-0.09 -0.08,-0.18 -0.13,-0.27l0 0zm-0.13 -0.3c0.04,0.09 0.08,0.18 0.12,0.28l-0.12 -0.28 0 0zm-0.12 -0.28c0.04,0.09 0.07,0.18 0.11,0.28 -0.04,-0.09 -0.08,-0.18 -0.11,-0.28l0 0zm-0.11 -0.27c0.03,0.09 0.07,0.17 0.1,0.26 -0.03,-0.08 -0.07,-0.17 -0.1,-0.26l0 0zm-0.54 -1.7c0.14,0.55 0.31,1.11 0.53,1.67 -0.21,-0.56 -0.39,-1.12 -0.53,-1.67l0 0zm-0.07 -0.28c0.02,0.09 0.04,0.18 0.06,0.27l-0.06 -0.27 0 0zm-0.29 -2.01l-0.01 -0.17c0.03,0.71 0.13,1.43 0.3,2.17 -0.15,-0.67 -0.25,-1.34 -0.29,-2l0 0zm-15.1 46.73c0.05,0.16 0.09,0.33 0.13,0.51 -0.03,-0.17 -0.08,-0.34 -0.13,-0.51l0 0zm-0.17 -0.47c0.06,0.15 0.12,0.31 0.17,0.47 -0.05,-0.16 -0.11,-0.32 -0.17,-0.47l0 0zm-27.45 -2.13c-0.02,-0.03 -0.04,-0.05 -0.06,-0.08 0.02,0.03 0.04,0.05 0.06,0.08l0 0zm15.1 4.02c0.52,-5.31 10.24,-6.75 12.35,-1.89l-0.05 -0.11c5.04,-0.85 8.48,-2.18 8.4,-3.44 -0.12,-1.74 -6.9,-2.68 -15.15,-2.11 -8.25,0.57 -14.84,2.44 -14.72,4.17 0.09,1.31 3.98,2.17 9.43,2.27 -0.11,0.3 -0.19,0.62 -0.24,0.95 -0.01,0.05 -0.01,0.1 -0.02,0.16l0 0zm-0.02 0.38c0,-0.12 0.01,-0.24 0.02,-0.36 -0.01,0.12 -0.02,0.24 -0.02,0.36l0 0zm0.01 0.39c-0.01,-0.13 -0.01,-0.25 -0.01,-0.38 0,0.12 0,0.25 0.01,0.38l0 0zm0.04 0.41c-0.02,-0.13 -0.03,-0.27 -0.04,-0.39 0.01,0.13 0.02,0.26 0.04,0.39l0 0zm0.08 0.41c-0.03,-0.14 -0.06,-0.27 -0.08,-0.41 0.02,0.13 0.05,0.27 0.08,0.41l0 0zm0.11 0.43c-0.04,-0.14 -0.08,-0.28 -0.11,-0.41 0.03,0.14 0.06,0.27 0.11,0.41l0 0zm0.15 0.44c-0.05,-0.14 -0.1,-0.28 -0.14,-0.42 0.04,0.14 0.09,0.28 0.14,0.42l0 0zm0.18 0.45c-0.06,-0.15 -0.13,-0.29 -0.18,-0.44 0.05,0.14 0.12,0.29 0.18,0.44l0 0zm0.23 0.47c-0.08,-0.15 -0.15,-0.31 -0.22,-0.45 0.07,0.15 0.14,0.3 0.22,0.45l0 0zm0.27 0.47c-0.09,-0.16 -0.18,-0.31 -0.26,-0.47 0.08,0.16 0.17,0.31 0.26,0.47l0 0zm0.3 0.48c-0.11,-0.16 -0.21,-0.32 -0.3,-0.48 0.1,0.16 0.2,0.32 0.3,0.48l0 0zm0.35 0.49c-0.12,-0.16 -0.23,-0.32 -0.34,-0.48 0.11,0.16 0.22,0.32 0.34,0.48l0 0zm-17.08 -9.4c0.02,0.06 0.04,0.13 0.06,0.19l0.02 0.04c-0.03,-0.07 -0.06,-0.15 -0.08,-0.23l0 0zm-0.07 -0.47c0,0.05 0,0.1 0,0.15l-0 -0.15 0 0zm0.01 -0.15c-0,0.05 -0.01,0.1 -0.01,0.15 0,-0.05 0,-0.1 0.01,-0.15l0 0zm0.06 -0.3c-0.03,0.1 -0.05,0.19 -0.06,0.29 0.01,-0.1 0.03,-0.2 0.06,-0.29l0 0zm0.05 -0.15c-0.02,0.05 -0.04,0.1 -0.05,0.14 0.01,-0.05 0.03,-0.1 0.05,-0.14l0 0zm0.06 -0.14c-0.02,0.05 -0.04,0.09 -0.06,0.14 0.02,-0.05 0.04,-0.09 0.06,-0.14l0 0zm0.08 -0.15c-0.03,0.05 -0.05,0.09 -0.07,0.14 0.02,-0.05 0.05,-0.1 0.07,-0.14l0 0zm0.09 -0.15c-0.03,0.05 -0.06,0.1 -0.09,0.14 0.03,-0.05 0.06,-0.09 0.09,-0.14l0 0zm0.1 -0.14c-0.04,0.05 -0.07,0.09 -0.1,0.14 0.03,-0.05 0.06,-0.09 0.1,-0.14l0 0zm0.25 -0.29c-0.09,0.09 -0.17,0.19 -0.24,0.28 0.07,-0.09 0.16,-0.19 0.24,-0.28l0 0zm-13.17 6.25l0 -17.51 55.56 -30.33c-20.4,0.26 -36.02,-3.23 -36.49,-8.6 -0.54,-6.18 19.16,-12.52 44.01,-14.16 24.85,-1.64 45.42,2.04 45.96,8.23 0.45,5.11 -12.92,10.32 -31.6,12.91l-0.01 -0.11c0.6,5.38 -2.09,12.35 -8.1,20.69 -5.14,-4 -8.85,-7.84 -11.12,-11.48 0.07,0.11 0.14,0.23 0.21,0.34l-56.43 31.4 3.62 -2.01 0.4 2.76 7.46 1.38c-0.1,0.09 -0.2,0.19 -0.29,0.28 2.4,-2.56 10.67,-4.75 20.66,-5.24 12.07,-0.59 22.07,1.52 22.34,4.72 0.23,2.67 -6.37,5.25 -15.56,6.38 -0.01,-0.07 -0.02,-0.14 -0.04,-0.21 0.47,2.45 -0.68,6.12 -4.84,11.2 -2.91,-1.98 -4.87,-3.81 -6.1,-5.47 0.1,0.14 0.21,0.28 0.32,0.42l-27.36 -5.05 -2.59 -0.48 0 0zm75.2 -55.21c0.83,1.07 1.44,2.26 1.82,3.55l-0.05 -0.18c12.82,-2.04 21.79,-5.4 21.55,-8.51 -0.31,-4.01 -15.88,-6.08 -34.78,-4.62 -18.89,1.46 -33.96,5.91 -33.65,9.92 0.26,3.34 11.05,5.33 25.54,5.06l-0.02 0.16c0.13,-1.13 0.44,-2.22 0.93,-3.28 4.08,-8.88 12.76,-9.74 18.66,-2.11l0 0z" style="fill: #1677ff;"></path><path d="M212.03 157.89c-45.91,2.5 -84.55,35.23 -94.57,80.1 4.27,0.96 8.63,1.66 13.06,2.09 10,-40.29 41.3,-71.85 81.51,-82.19z" style="fill: rgb(0, 0, 0);"></path><path d="M225.88 162.51c-41.33,1.08 -74.75,38.29 -82.59,78.02 4.06,-0.11 8.08,-0.45 12.04,-1.02 7.64,-36.64 34.7,-66.18 70.54,-77z" style="fill: rgb(0, 0, 0);"></path><path d="M234.62 165.9c-32.37,10.61 -56.88,37.29 -64.72,70.43 5.92,-1.73 11.66,-3.99 17.15,-6.72 7.82,-26.19 24.67,-48.77 47.56,-63.71z" style="fill: rgb(0, 0, 0);"></path><path d="M234.13 182.51c-11.52,9.55 -20.96,21.35 -27.76,34.68 11.41,-9.26 20.95,-20.98 27.76,-34.68z" style="fill: rgb(0, 0, 0);"></path><path d="M80.36 221.53c12.89,-41.37 50.44,-70.13 93.74,-71.81 -44.78,-5.98 -90.79,0.53 -132.75,19.44 7.24,21.65 21.13,39.79 39.01,52.37z" style="fill: #1677ff;"></path><path d="M107.17 235.11c9.08,-46.67 50.38,-80.07 97.92,-79.19 -24.38,-4.67 -49.61,0.61 -70.07,14.65 -20.46,14.05 -34.46,35.69 -38.88,60.11 3.58,1.68 7.26,3.16 11.03,4.42z" style="fill: rgb(0, 0, 0);"></path></g></svg>